<mxfile host="Electron" modified="2023-09-24T08:26:00.620Z" agent="Mozilla/5.0 (Windows NT 10.0; Win64; x64) AppleWebKit/537.36 (KHTML, like Gecko) draw.io/21.7.5 Chrome/114.0.5735.289 Electron/25.8.1 Safari/537.36" etag="ES2156fTPAZ-7gybOU0h" version="21.7.5" type="device">
  <diagram name="Page-1" id="jcCofNVjKSemJs72I7KH">
    <mxGraphModel dx="1050" dy="1729" grid="1" gridSize="10" guides="1" tooltips="1" connect="1" arrows="1" fold="1" page="1" pageScale="1" pageWidth="850" pageHeight="1100" math="0" shadow="0">
      <root>
        <mxCell id="0" />
        <mxCell id="1" parent="0" />
        <mxCell id="TjjOdIAqueNW31nxakU9-4" style="edgeStyle=orthogonalEdgeStyle;rounded=0;orthogonalLoop=1;jettySize=auto;html=1;entryX=0;entryY=0.5;entryDx=0;entryDy=0;" edge="1" parent="1" source="TjjOdIAqueNW31nxakU9-1" target="TjjOdIAqueNW31nxakU9-2">
          <mxGeometry relative="1" as="geometry" />
        </mxCell>
        <mxCell id="TjjOdIAqueNW31nxakU9-5" style="edgeStyle=orthogonalEdgeStyle;rounded=0;orthogonalLoop=1;jettySize=auto;html=1;" edge="1" parent="1" source="TjjOdIAqueNW31nxakU9-1" target="TjjOdIAqueNW31nxakU9-3">
          <mxGeometry relative="1" as="geometry" />
        </mxCell>
        <mxCell id="TjjOdIAqueNW31nxakU9-12" style="edgeStyle=orthogonalEdgeStyle;rounded=0;orthogonalLoop=1;jettySize=auto;html=1;entryX=-0.003;entryY=0.537;entryDx=0;entryDy=0;entryPerimeter=0;" edge="1" parent="1" source="TjjOdIAqueNW31nxakU9-1" target="TjjOdIAqueNW31nxakU9-10">
          <mxGeometry relative="1" as="geometry" />
        </mxCell>
        <mxCell id="TjjOdIAqueNW31nxakU9-13" style="edgeStyle=orthogonalEdgeStyle;rounded=0;orthogonalLoop=1;jettySize=auto;html=1;entryX=0.003;entryY=0.574;entryDx=0;entryDy=0;entryPerimeter=0;" edge="1" parent="1" source="TjjOdIAqueNW31nxakU9-1" target="TjjOdIAqueNW31nxakU9-11">
          <mxGeometry relative="1" as="geometry" />
        </mxCell>
        <mxCell id="TjjOdIAqueNW31nxakU9-1" value="User" style="shape=umlActor;verticalLabelPosition=bottom;verticalAlign=top;html=1;outlineConnect=0;" vertex="1" parent="1">
          <mxGeometry x="70" y="200" width="30" height="60" as="geometry" />
        </mxCell>
        <mxCell id="TjjOdIAqueNW31nxakU9-9" style="edgeStyle=orthogonalEdgeStyle;rounded=0;orthogonalLoop=1;jettySize=auto;html=1;entryX=0;entryY=0.5;entryDx=0;entryDy=0;" edge="1" parent="1" source="TjjOdIAqueNW31nxakU9-2" target="TjjOdIAqueNW31nxakU9-8">
          <mxGeometry relative="1" as="geometry">
            <Array as="points">
              <mxPoint x="250" y="30" />
            </Array>
          </mxGeometry>
        </mxCell>
        <mxCell id="TjjOdIAqueNW31nxakU9-15" style="edgeStyle=orthogonalEdgeStyle;rounded=0;orthogonalLoop=1;jettySize=auto;html=1;entryX=0;entryY=0.5;entryDx=0;entryDy=0;" edge="1" parent="1" target="TjjOdIAqueNW31nxakU9-14">
          <mxGeometry relative="1" as="geometry">
            <mxPoint x="270" y="120" as="sourcePoint" />
            <mxPoint x="600" y="245" as="targetPoint" />
            <Array as="points">
              <mxPoint x="490" y="120" />
              <mxPoint x="490" y="240" />
              <mxPoint x="630" y="240" />
              <mxPoint x="630" y="245" />
              <mxPoint x="640" y="245" />
            </Array>
          </mxGeometry>
        </mxCell>
        <mxCell id="TjjOdIAqueNW31nxakU9-22" value="GET: searchForPlaces(searchInfo) -&amp;gt; places[]" style="edgeLabel;html=1;align=center;verticalAlign=middle;resizable=0;points=[];" vertex="1" connectable="0" parent="TjjOdIAqueNW31nxakU9-15">
          <mxGeometry x="0.0726" y="5" relative="1" as="geometry">
            <mxPoint x="-35" y="4" as="offset" />
          </mxGeometry>
        </mxCell>
        <mxCell id="TjjOdIAqueNW31nxakU9-23" style="edgeStyle=orthogonalEdgeStyle;rounded=0;orthogonalLoop=1;jettySize=auto;html=1;entryX=0;entryY=0.5;entryDx=0;entryDy=0;" edge="1" parent="1" source="TjjOdIAqueNW31nxakU9-2" target="TjjOdIAqueNW31nxakU9-6">
          <mxGeometry relative="1" as="geometry">
            <Array as="points">
              <mxPoint x="250" y="-130" />
            </Array>
          </mxGeometry>
        </mxCell>
        <mxCell id="TjjOdIAqueNW31nxakU9-2" value="Search for places" style="ellipse;whiteSpace=wrap;html=1;fillColor=#B3B3B3;" vertex="1" parent="1">
          <mxGeometry x="190" y="90" width="120" height="80" as="geometry" />
        </mxCell>
        <mxCell id="TjjOdIAqueNW31nxakU9-18" style="edgeStyle=orthogonalEdgeStyle;rounded=0;orthogonalLoop=1;jettySize=auto;html=1;entryX=0;entryY=0.75;entryDx=0;entryDy=0;" edge="1" parent="1" source="TjjOdIAqueNW31nxakU9-3" target="TjjOdIAqueNW31nxakU9-14">
          <mxGeometry relative="1" as="geometry" />
        </mxCell>
        <mxCell id="TjjOdIAqueNW31nxakU9-3" value="Upload places" style="ellipse;whiteSpace=wrap;html=1;fillColor=#B3B3B3;" vertex="1" parent="1">
          <mxGeometry x="190" y="230" width="120" height="80" as="geometry" />
        </mxCell>
        <mxCell id="TjjOdIAqueNW31nxakU9-16" style="edgeStyle=orthogonalEdgeStyle;rounded=0;orthogonalLoop=1;jettySize=auto;html=1;" edge="1" parent="1" source="TjjOdIAqueNW31nxakU9-6" target="TjjOdIAqueNW31nxakU9-14">
          <mxGeometry relative="1" as="geometry" />
        </mxCell>
        <mxCell id="TjjOdIAqueNW31nxakU9-6" value="Places filter" style="ellipse;whiteSpace=wrap;html=1;fillColor=#B3B3B3;" vertex="1" parent="1">
          <mxGeometry x="390" y="-170" width="120" height="80" as="geometry" />
        </mxCell>
        <mxCell id="TjjOdIAqueNW31nxakU9-17" style="edgeStyle=orthogonalEdgeStyle;rounded=0;orthogonalLoop=1;jettySize=auto;html=1;entryX=0;entryY=0.25;entryDx=0;entryDy=0;" edge="1" parent="1" source="TjjOdIAqueNW31nxakU9-8" target="TjjOdIAqueNW31nxakU9-14">
          <mxGeometry relative="1" as="geometry">
            <Array as="points">
              <mxPoint x="640" y="30" />
            </Array>
          </mxGeometry>
        </mxCell>
        <mxCell id="TjjOdIAqueNW31nxakU9-8" value="Show on map" style="ellipse;whiteSpace=wrap;html=1;fillColor=#B3B3B3;" vertex="1" parent="1">
          <mxGeometry x="400" y="-10" width="120" height="80" as="geometry" />
        </mxCell>
        <mxCell id="TjjOdIAqueNW31nxakU9-19" style="edgeStyle=orthogonalEdgeStyle;rounded=0;orthogonalLoop=1;jettySize=auto;html=1;entryX=0.5;entryY=1;entryDx=0;entryDy=0;" edge="1" parent="1" source="TjjOdIAqueNW31nxakU9-10" target="TjjOdIAqueNW31nxakU9-14">
          <mxGeometry relative="1" as="geometry" />
        </mxCell>
        <mxCell id="TjjOdIAqueNW31nxakU9-10" value="Change Web &lt;br&gt;Languages" style="ellipse;whiteSpace=wrap;html=1;fillColor=#B3B3B3;" vertex="1" parent="1">
          <mxGeometry x="240" y="370" width="120" height="80" as="geometry" />
        </mxCell>
        <mxCell id="TjjOdIAqueNW31nxakU9-20" style="edgeStyle=orthogonalEdgeStyle;rounded=0;orthogonalLoop=1;jettySize=auto;html=1;entryX=0.872;entryY=1.003;entryDx=0;entryDy=0;entryPerimeter=0;" edge="1" parent="1" source="TjjOdIAqueNW31nxakU9-11" target="TjjOdIAqueNW31nxakU9-14">
          <mxGeometry relative="1" as="geometry" />
        </mxCell>
        <mxCell id="TjjOdIAqueNW31nxakU9-11" value="Login/Register - Logout" style="ellipse;whiteSpace=wrap;html=1;fillColor=#B3B3B3;" vertex="1" parent="1">
          <mxGeometry x="240" y="470" width="120" height="80" as="geometry" />
        </mxCell>
        <mxCell id="TjjOdIAqueNW31nxakU9-14" value="Controller" style="rounded=1;whiteSpace=wrap;html=1;" vertex="1" parent="1">
          <mxGeometry x="640" y="180" width="100" height="150" as="geometry" />
        </mxCell>
      </root>
    </mxGraphModel>
  </diagram>
</mxfile>
